<svg xmlns="http://www.w3.org/2000/svg" viewBox="0 0 960 600" role="img" aria-label="Map of the continental United States">
  <rect width="960" height="600" fill="#dbe4ea"/>
  <g fill="#f8f9fb" stroke="#4b4b4b" stroke-linejoin="round">
    <path
      id="continental-us"
      d="M108 168
         L118 142 L136 126 L168 116 L190 104 L221 98 L250 106 L287 103 L320 92 L351 96 L382 104
         L420 102 L453 109 L486 107 L522 112 L551 110 L584 117 L618 126 L652 141 L687 151 L716 162
         L744 167 L774 171 L804 180 L827 196 L845 214 L865 233 L878 256 L892 286 L893 309 L882 328
         L862 339 L851 351 L846 372 L838 391 L825 404 L804 411 L783 418 L760 428 L735 438 L712 440
         L689 438 L666 440 L648 449 L627 460 L598 470 L576 474 L554 470 L534 468 L514 472 L493 478
         L468 488 L440 489 L416 483 L395 476 L372 468 L349 462 L328 461 L305 463 L283 462 L258 456
         L237 444 L223 432 L205 421 L185 412 L165 400 L149 383 L133 365 L122 344 L114 324 L102 307
         L90 289 L80 272 L81 253 L88 236 L97 220 L104 201 Z"
      fill="#f5f5f5"
      stroke="#323232"
      stroke-width="2.2"
    />
    <path
      d="M604 154
         L614 143 L629 140 L642 143 L653 151 L655 165 L648 177 L637 181 L621 179 L610 170 Z"
      fill="#dbe4ea"
      stroke="#323232"
      stroke-width="1.2"
      opacity="0.9"
    />
    <path
      d="M654 156
         L670 150 L686 151 L700 158 L704 171 L696 181 L681 184 L666 181 L656 172 Z"
      fill="#dbe4ea"
      stroke="#323232"
      stroke-width="1.2"
      opacity="0.9"
    />
  </g>

  <g fill="none" stroke="#626262" stroke-width="1" opacity="0.34">
    <path d="M143 124 L168 401"/>
    <path d="M197 103 L215 430"/>
    <path d="M251 105 L259 458"/>
    <path d="M307 95 L309 463"/>
    <path d="M361 100 L363 482"/>
    <path d="M417 102 L419 488"/>
    <path d="M471 108 L472 490"/>
    <path d="M526 111 L525 478"/>
    <path d="M580 115 L578 470"/>
    <path d="M634 130 L630 457"/>
    <path d="M688 151 L684 437"/>
    <path d="M742 167 L736 427"/>
    <path d="M794 178 L784 411"/>

    <path d="M112 205 C196 190 295 186 398 194 C518 203 671 211 852 227"/>
    <path d="M90 248 C205 240 336 244 470 254 C601 264 733 272 890 289"/>
    <path d="M89 291 C197 297 331 306 474 315 C615 323 743 331 875 338"/>
    <path d="M112 337 C223 347 341 359 470 371 C585 382 694 392 826 398"/>
    <path d="M154 390 C251 403 354 419 468 431 C566 441 650 449 746 448"/>
  </g>

  <g fill="none" stroke="#9aa8b3" stroke-width="1" opacity="0.22">
    <path d="M106 168 L892 286"/>
    <path d="M94 248 L876 338"/>
    <path d="M112 337 L746 448"/>
  </g>
</svg>
